{
  "accessors": [
    {
      "bufferView": 2,
      "componentType": 5126,
      "count": 9066,
      "max": [
        0.2930600047111511,
        0.11843100190162659,
        -0.008999999612569809
      ],
      "min": [
        -0.2930600047111511,
        -0.11843100190162659,
        -0.07864599674940109
      ],
      "type": "VEC3"
    },
    {
      "bufferView": 2,
      "byteOffset": 108792,
      "componentType": 5126,
      "count": 9066,
      "max": [
        1.0,
        1.0,
        1.0
      ],
      "min": [
        -1.0,
        -1.0,
        -1.0
      ],
      "type": "VEC3"
    },
    {
      "bufferView": 3,
      "componentType": 5126,
      "count": 9066,
      "max": [
        1.0,
        0.9999803900718689,
        1.0,
        1.0
      ],
      "min": [
        -1.0,
        -1.0,
        -1.0,
        -1.0
      ],
      "type": "VEC4"
    },
    {
      "bufferView": 1,
      "componentType": 5126,
      "count": 9066,
      "max": [
        0.998117983341217,
        0.9841660261154175
      ],
      "min": [
        0.1730010062456131,
        0.0015040000434964895
      ],
      "type": "VEC2"
    },
    {
      "bufferView": 0,
      "componentType": 5125,
      "count": 44352,
      "type": "SCALAR"
    },
    {
      "bufferView": 2,
      "byteOffset": 217584,
      "componentType": 5126,
      "count": 6558,
      "max": [
        0.47690701484680176,
        0.11511299759149551,
        0.0472089983522892
      ],
      "min": [
        -0.47690701484680176,
        -0.11511299759149551,
        -0.05920900031924248
      ],
      "type": "VEC3"
    },
    {
      "bufferView": 2,
      "byteOffset": 296280,
      "componentType": 5126,
      "count": 6558,
      "max": [
        0.9979490041732788,
        0.9992221593856812,
        1.0
      ],
      "min": [
        -0.9975296258926392,
        -0.9992221593856812,
        -1.0
      ],
      "type": "VEC3"
    },
    {
      "bufferView": 3,
      "byteOffset": 145056,
      "componentType": 5126,
      "count": 6558,
      "max": [
        0.9999379515647888,
        1.0,
        1.0,
        1.0
      ],
      "min": [
        -0.9999255537986755,
        -0.9996213316917419,
        -1.0,
        -1.0
      ],
      "type": "VEC4"
    },
    {
      "bufferView": 1,
      "byteOffset": 72528,
      "componentType": 5126,
      "count": 6558,
      "max": [
        0.9975799918174744,
        0.9984869956970215
      ],
      "min": [
        0.001505000051110983,
        0.0015030000358819962
      ],
      "type": "VEC2"
    },
    {
      "bufferView": 0,
      "byteOffset": 177408,
      "componentType": 5125,
      "count": 29664,
      "type": "SCALAR"
    }
  ],
  "asset": {
    "extras": {
      "author": "Ege Yavuz (https://sketchfab.com/egeyavuzozsoy03)",
      "license": "CC-BY-SA-4.0 (http://creativecommons.org/licenses/by-sa/4.0/)",
      "source": "https://sketchfab.com/3d-models/classic-street-skateboard-free-to-use-9f59277f51d249fbb72ba7a3ed6d3985",
      "title": "Classic street skateboard (Free to use)"
    },
    "generator": "Sketchfab-15.1.0",
    "version": "2.0"
  },
  "bufferViews": [
    {
      "buffer": 0,
      "byteLength": 296064,
      "name": "floatBufferViews",
      "target": 34963
    },
    {
      "buffer": 0,
      "byteLength": 124992,
      "byteOffset": 296064,
      "byteStride": 8,
      "name": "floatBufferViews",
      "target": 34962
    },
    {
      "buffer": 0,
      "byteLength": 374976,
      "byteOffset": 421056,
      "byteStride": 12,
      "name": "floatBufferViews",
      "target": 34962
    },
    {
      "buffer": 0,
      "byteLength": 249984,
      "byteOffset": 796032,
      "byteStride": 16,
      "name": "floatBufferViews",
      "target": 34962
    }
  ],
  "buffers": [
    {
      "byteLength": 1046016,
      "uri": "scene.bin"
    }
  ],
  "extensionsUsed": [
    "KHR_materials_specular"
  ],
  "images": [
    {
      "uri": "textures/Material_baseColor.png"
    },
    {
      "uri": "textures/Material_metallicRoughness.png"
    },
    {
      "uri": "textures/Material_normal.png"
    }
  ],
  "materials": [
    {
      "doubleSided": true,
      "extensions": {
        "KHR_materials_specular": {
          "specularColorFactor": [
            1.0,
            1.0,
            1.0
          ],
          "specularFactor": 0.1630481159561629
        }
      },
      "name": "Material",
      "normalTexture": {
        "index": 2
      },
      "pbrMetallicRoughness": {
        "baseColorTexture": {
          "index": 0
        },
        "metallicRoughnessTexture": {
          "index": 1
        }
      }
    }
  ],
  "meshes": [
    {
      "name": "Object_0",
      "primitives": [
        {
          "attributes": {
            "NORMAL": 1,
            "POSITION": 0,
            "TANGENT": 2,
            "TEXCOORD_0": 3
          },
          "indices": 4,
          "material": 0,
          "mode": 4
        }
      ]
    },
    {
      "name": "Object_1",
      "primitives": [
        {
          "attributes": {
            "NORMAL": 6,
            "POSITION": 5,
            "TANGENT": 7,
            "TEXCOORD_0": 8
          },
          "indices": 9,
          "material": 0,
          "mode": 4
        }
      ]
    }
  ],
  "nodes": [
    {
      "children": [
        1
      ],
      "matrix": [
        1.0,
        0.0,
        0.0,
        0.0,
        0.0,
        2.220446049250313e-16,
        -1.0,
        0.0,
        0.0,
        1.0,
        2.220446049250313e-16,
        0.0,
        0.0,
        0.0,
        0.0,
        1.0
      ],
      "name": "Sketchfab_model"
    },
    {
      "children": [
        2,
        3
      ],
      "name": "Kaykayv2.obj.cleaner.materialmerger.gles"
    },
    {
      "mesh": 0,
      "name": "Object_2"
    },
    {
      "mesh": 1,
      "name": "Object_3"
    }
  ],
  "samplers": [
    {
      "magFilter": 9729,
      "minFilter": 9987,
      "wrapS": 10497,
      "wrapT": 10497
    }
  ],
  "scene": 0,
  "scenes": [
    {
      "name": "Sketchfab_Scene",
      "nodes": [
        0
      ]
    }
  ],
  "textures": [
    {
      "sampler": 0,
      "source": 0
    },
    {
      "sampler": 0,
      "source": 1
    },
    {
      "sampler": 0,
      "source": 2
    }
  ]
}
