{
	"asset":{
		"generator":"Khronos glTF Blender I/O v3.5.30",
		"version":"2.0"
	},
	"scene":0,
	"scenes":[
		{
			"name":"Scene",
			"nodes":[
				12
			]
		}
	],
	"nodes":[
		{
			"mesh":0,
			"name":"bolts",
			"scale":[
				19.989999771118164,
				19.989999771118164,
				19.989999771118164
			]
		},
		{
			"children":[
				0
			],
			"name":"boltsParent",
			"rotation":[
				-0.70710688829422,
				0,
				0,
				0.7071066498756409
			],
			"scale":[
				100,
				99.99999237060547,
				99.99999237060547
			]
		},
		{
			"mesh":1,
			"name":"gripTape",
			"scale":[
				20,
				20,
				20
			]
		},
		{
			"children":[
				2
			],
			"name":"gripTapeParant",
			"rotation":[
				-0.70710688829422,
				0,
				0,
				0.7071066498756409
			],
			"scale":[
				100,
				99.99999237060547,
				99.99999237060547
			]
		},
		{
			"mesh":2,
			"name":"truck",
			"scale":[
				20,
				20,
				20
			]
		},
		{
			"children":[
				4
			],
			"name":"trucksParent",
			"rotation":[
				-0.70710688829422,
				0,
				0,
				0.7071066498756409
			],
			"scale":[
				100,
				99.99999237060547,
				99.99999237060547
			]
		},
		{
			"mesh":3,
			"name":"trucks",
			"scale":[
				20,
				20,
				20
			]
		},
		{
			"children":[
				6
			],
			"name":"trucksParent.001",
			"rotation":[
				-0.70710688829422,
				0,
				0,
				0.7071066498756409
			],
			"scale":[
				100,
				99.99999237060547,
				99.99999237060547
			]
		},
		{
			"mesh":4,
			"name":"wheels",
			"scale":[
				20,
				20,
				20
			]
		},
		{
			"children":[
				8
			],
			"name":"wheelsParent",
			"rotation":[
				-0.70710688829422,
				0,
				0,
				0.7071066498756409
			],
			"scale":[
				100,
				99.99999237060547,
				99.99999237060547
			]
		},
		{
			"children":[
				1,
				3,
				5,
				7,
				9
			],
			"name":"RootNode"
		},
		{
			"children":[
				10
			],
			"name":"Skateboard.fbx",
			"rotation":[
				0.70710688829422,
				0,
				0,
				0.7071066498756409
			],
			"scale":[
				0.009999999776482582,
				0.010000000707805157,
				0.010000000707805157
			]
		},
		{
			"children":[
				11
			],
			"name":"Sketchfab_model",
			"rotation":[
				-0.70710688829422,
				0,
				0,
				0.7071066498756409
			],
			"scale":[
				8,
				8.000000953674316,
				8.000000953674316
			]
		}
	],
	"materials":[
		{
			"doubleSided":true,
			"name":"node",
			"normalTexture":{
				"index":0
			},
			"pbrMetallicRoughness":{
				"baseColorTexture":{
					"index":1
				},
				"metallicRoughnessTexture":{
					"index":2
				}
			}
		}
	],
	"meshes":[
		{
			"name":"bolts",
			"primitives":[
				{
					"attributes":{
						"POSITION":0,
						"TEXCOORD_0":1,
						"NORMAL":2
					},
					"indices":3,
					"material":0
				}
			]
		},
		{
			"name":"gripTape",
			"primitives":[
				{
					"attributes":{
						"POSITION":4,
						"TEXCOORD_0":5,
						"NORMAL":6
					},
					"indices":7
				}
			]
		},
		{
			"name":"truck",
			"primitives":[
				{
					"attributes":{
						"POSITION":8,
						"TEXCOORD_0":9,
						"NORMAL":10
					},
					"indices":11,
					"material":0
				}
			]
		},
		{
			"name":"trucks",
			"primitives":[
				{
					"attributes":{
						"POSITION":12,
						"TEXCOORD_0":13,
						"NORMAL":14
					},
					"indices":15,
					"material":0
				}
			]
		},
		{
			"name":"wheels",
			"primitives":[
				{
					"attributes":{
						"POSITION":16,
						"TEXCOORD_0":17,
						"NORMAL":18
					},
					"indices":19,
					"material":0
				}
			]
		}
	],
	"textures":[
		{
			"sampler":0,
			"source":0
		},
		{
			"sampler":0,
			"source":1
		},
		{
			"sampler":0,
			"source":2
		}
	],
	"images":[
		{
			"bufferView":4,
			"mimeType":"image/png",
			"name":"Scateboard_MAT_normal"
		},
		{
			"bufferView":5,
			"mimeType":"image/png",
			"name":"Scateboard_MAT_baseColor"
		},
		{
			"bufferView":6,
			"mimeType":"image/png",
			"name":"Scateboard_MAT_metallicRoughness"
		}
	],
	"accessors":[
		{
			"bufferView":0,
			"componentType":5126,
			"count":768,
			"max":[
				0.23434898257255554,
				0.023545702919363976,
				0.0804353877902031
			],
			"min":[
				-0.23434898257255554,
				-0.023545702919363976,
				0.060444675385951996
			],
			"type":"VEC3"
		},
		{
			"bufferView":1,
			"componentType":5126,
			"count":768,
			"type":"VEC2"
		},
		{
			"bufferView":2,
			"componentType":5126,
			"count":768,
			"type":"VEC3"
		},
		{
			"bufferView":3,
			"componentType":5123,
			"count":2160,
			"type":"SCALAR"
		},
		{
			"bufferView":7,
			"componentType":5126,
			"count":394,
			"max":[
				0.3798326253890991,
				0.09718596190214157,
				0.10811495035886765
			],
			"min":[
				-0.3798326253890991,
				-0.09718596190214157,
				0.0648338571190834
			],
			"type":"VEC3"
		},
		{
			"bufferView":8,
			"componentType":5126,
			"count":394,
			"type":"VEC2"
		},
		{
			"bufferView":9,
			"componentType":5126,
			"count":394,
			"type":"VEC3"
		},
		{
			"bufferView":10,
			"componentType":5123,
			"count":1872,
			"type":"SCALAR"
		},
		{
			"bufferView":11,
			"componentType":5126,
			"count":358,
			"max":[
				0.23585577309131622,
				0.02773120626807213,
				0.07204937934875488
			],
			"min":[
				-0.23585577309131622,
				-0.02773120626807213,
				0.01964995078742504
			],
			"type":"VEC3"
		},
		{
			"bufferView":12,
			"componentType":5126,
			"count":358,
			"type":"VEC2"
		},
		{
			"bufferView":13,
			"componentType":5126,
			"count":358,
			"type":"VEC3"
		},
		{
			"bufferView":14,
			"componentType":5123,
			"count":540,
			"type":"SCALAR"
		},
		{
			"bufferView":15,
			"componentType":5126,
			"count":4476,
			"max":[
				0.2320978045463562,
				0.09272202104330063,
				0.06694436073303223
			],
			"min":[
				-0.2320978045463562,
				-0.09272202104330063,
				0.0155651168897748
			],
			"type":"VEC3"
		},
		{
			"bufferView":16,
			"componentType":5126,
			"count":4476,
			"type":"VEC2"
		},
		{
			"bufferView":17,
			"componentType":5126,
			"count":4476,
			"type":"VEC3"
		},
		{
			"bufferView":18,
			"componentType":5123,
			"count":9636,
			"type":"SCALAR"
		},
		{
			"bufferView":19,
			"componentType":5126,
			"count":1744,
			"max":[
				0.22999553382396698,
				0.09169866144657135,
				0.047329068183898926
			],
			"min":[
				-0.22999553382396698,
				-0.09169866144657135,
				1.806507839319238e-06
			],
			"type":"VEC3"
		},
		{
			"bufferView":20,
			"componentType":5126,
			"count":1744,
			"type":"VEC2"
		},
		{
			"bufferView":21,
			"componentType":5126,
			"count":1744,
			"type":"VEC3"
		},
		{
			"bufferView":22,
			"componentType":5123,
			"count":6912,
			"type":"SCALAR"
		}
	],
	"bufferViews":[
		{
			"buffer":0,
			"byteLength":9216,
			"byteOffset":0,
			"target":34962
		},
		{
			"buffer":0,
			"byteLength":6144,
			"byteOffset":9216,
			"target":34962
		},
		{
			"buffer":0,
			"byteLength":9216,
			"byteOffset":15360,
			"target":34962
		},
		{
			"buffer":0,
			"byteLength":4320,
			"byteOffset":24576,
			"target":34963
		},
		{
			"buffer":0,
			"byteLength":872878,
			"byteOffset":28896
		},
		{
			"buffer":0,
			"byteLength":654201,
			"byteOffset":901776
		},
		{
			"buffer":0,
			"byteLength":402409,
			"byteOffset":1555980
		},
		{
			"buffer":0,
			"byteLength":4728,
			"byteOffset":1958392,
			"target":34962
		},
		{
			"buffer":0,
			"byteLength":3152,
			"byteOffset":1963120,
			"target":34962
		},
		{
			"buffer":0,
			"byteLength":4728,
			"byteOffset":1966272,
			"target":34962
		},
		{
			"buffer":0,
			"byteLength":3744,
			"byteOffset":1971000,
			"target":34963
		},
		{
			"buffer":0,
			"byteLength":4296,
			"byteOffset":1974744,
			"target":34962
		},
		{
			"buffer":0,
			"byteLength":2864,
			"byteOffset":1979040,
			"target":34962
		},
		{
			"buffer":0,
			"byteLength":4296,
			"byteOffset":1981904,
			"target":34962
		},
		{
			"buffer":0,
			"byteLength":1080,
			"byteOffset":1986200,
			"target":34963
		},
		{
			"buffer":0,
			"byteLength":53712,
			"byteOffset":1987280,
			"target":34962
		},
		{
			"buffer":0,
			"byteLength":35808,
			"byteOffset":2040992,
			"target":34962
		},
		{
			"buffer":0,
			"byteLength":53712,
			"byteOffset":2076800,
			"target":34962
		},
		{
			"buffer":0,
			"byteLength":19272,
			"byteOffset":2130512,
			"target":34963
		},
		{
			"buffer":0,
			"byteLength":20928,
			"byteOffset":2149784,
			"target":34962
		},
		{
			"buffer":0,
			"byteLength":13952,
			"byteOffset":2170712,
			"target":34962
		},
		{
			"buffer":0,
			"byteLength":20928,
			"byteOffset":2184664,
			"target":34962
		},
		{
			"buffer":0,
			"byteLength":13824,
			"byteOffset":2205592,
			"target":34963
		}
	],
	"samplers":[
		{
			"magFilter":9729,
			"minFilter":9987
		}
	],
	"buffers":[
		{
			"byteLength":2219416,
			"uri":"data:application/octet-stream;base64,"
		}
	]
}
